<svg width="73" height="73" viewBox="0 0 73 73" fill="none" xmlns="http://www.w3.org/2000/svg">
<path d="M36.5 72C56.1061 72 72 56.1061 72 36.5C72 16.8939 56.1061 1 36.5 1C16.8939 1 1 16.8939 1 36.5C1 56.1061 16.8939 72 36.5 72Z" stroke="black" stroke-width="1.5" stroke-dasharray="3 1"/>
<path d="M36.4999 69.2692C54.5979 69.2692 69.2692 54.5979 69.2692 36.4999C69.2692 18.402 54.5979 3.73071 36.4999 3.73071C18.402 3.73071 3.73071 18.402 3.73071 36.4999C3.73071 54.5979 18.402 69.2692 36.4999 69.2692Z" stroke="black" stroke-width="1.5"/>
<path d="M36.5 17.3846L58.3462 44.6923" stroke="black" stroke-width="1.5"/>
<path d="M36.5001 17.3846L20.1155 44.6923" stroke="black" stroke-width="1.5"/>
<path d="M20.1155 44.6923H58.3462" stroke="black" stroke-width="1.5"/>
<path d="M20.1155 44.6923L36.5001 55.6153" stroke="black" stroke-width="1.5"/>
<path d="M58.3462 44.6923L36.5 55.6153" stroke="black" stroke-width="1.5"/>
<path d="M36.4999 25.5769C41.0244 25.5769 44.6922 21.9091 44.6922 17.3846C44.6922 12.8601 41.0244 9.19226 36.4999 9.19226C31.9754 9.19226 28.3076 12.8601 28.3076 17.3846C28.3076 21.9091 31.9754 25.5769 36.4999 25.5769Z" fill="#4169E1"/>
<path d="M20.1154 51.7923C24.0366 51.7923 27.2154 48.6135 27.2154 44.6923C27.2154 40.7711 24.0366 37.5923 20.1154 37.5923C16.1942 37.5923 13.0154 40.7711 13.0154 44.6923C13.0154 48.6135 16.1942 51.7923 20.1154 51.7923Z" fill="#FF6B6B"/>
<path d="M58.3461 52.3385C62.569 52.3385 65.9923 48.9152 65.9923 44.6923C65.9923 40.4694 62.569 37.0461 58.3461 37.0461C54.1233 37.0461 50.7 40.4694 50.7 44.6923C50.7 48.9152 54.1233 52.3385 58.3461 52.3385Z" fill="#FFB036"/>
<path d="M36.4999 62.7154C40.4211 62.7154 43.5999 59.5366 43.5999 55.6154C43.5999 51.6942 40.4211 48.5154 36.4999 48.5154C32.5787 48.5154 29.3999 51.6942 29.3999 55.6154C29.3999 59.5366 32.5787 62.7154 36.4999 62.7154Z" fill="#4CAF93"/>
</svg>
